<?xml version="1.0" encoding="utf-8"?>
<!-- Generator: Adobe Illustrator 21.1.0, SVG Export Plug-In . SVG Version: 6.00 Build 0)  -->
<svg version="1.1" id="Calque_1" xmlns="http://www.w3.org/2000/svg" xmlns:xlink="http://www.w3.org/1999/xlink" x="0px" y="0px"
	 viewBox="0 0 617 419" style="enable-background:new 0 0 617 419;" xml:space="preserve">
<style type="text/css">
	.st0{opacity:0.6166;}
	.st1{fill:#C3ECFE;}
	.st2{opacity:0.1633;fill:#00537D;enable-background:new    ;}
	.st3{filter:url(#Adobe_OpacityMaskFilter);}
	.st4{fill:#FFFFFF;}
	.st5{opacity:0.1633;mask:url(#mask-2);fill:#00537D;enable-background:new    ;}
	.st6{opacity:0.1767;fill:#00537D;enable-background:new    ;}
	.st7{fill:#D0DBEF;}
	.st8{fill:#F4F6F9;}
	.st9{fill:#15DB80;}
	.st10{fill:#FF6F4A;}
	.st11{fill:#1BBBF8;}
	.st12{fill:#00537D;}
	.st13{fill:#CAD6EC;}
	.st14{fill:#90E0FF;}
	.st15{fill:#386DC1;}
	.st16{fill:#5886CE;}
	.st17{fill:#EBA37F;}
	.st18{fill:#FFBE9D;}
	.st19{fill:#FFB3B3;}
	.st20{fill:#92A9D4;}
	.st21{fill:#E1E3FF;}
	.st22{fill:#D23E18;}
	.st23{filter:url(#Adobe_OpacityMaskFilter_1_);}
	.st24{mask:url(#mask-4);fill:#386DC1;}
	.st25{fill:#9BDFFF;}
	.st26{fill:#C2EBFF;}
</style>
<title>Group 15</title>
<desc>Created with Sketch.</desc>
<g id="DESKTOP">
	<g id="Hello-Harel_gestion-de-relation-client" transform="translate(-760.000000, -136.000000)">
		<g id="Group-15" transform="translate(760.000000, 136.000000)">
			<g id="Group-190" transform="translate(0.000000, 5.000000)">
				<g id="Group-6" transform="translate(0.000000, 178.000000)" class="st0">
					<path id="Fill-1" class="st1" d="M20,182.6c8.6-20.7-18.8-21.5-19.4-48.3c-0.2-10.9,8.7-22.1,30.2-27.2
						c10.6-2.5,21.1-4.2,30.5-8.2c21.4-9.1,21.1-26.4,26.9-41.2c12.8-32.4,62.3-58.2,112.3-57.3c36.1,0.6,68.7,1.3,101.6,21.9
						c22.5,14,37.1,31.3,58,45.8c22.1,15.3,49.1,22.7,79.4,27.6c28.6,4.7,59.8,10.2,81.7,24.2c20.6,13.1,17.6,26.8,8.8,42.9
						c-9.7,17.8,11.4,29.8,33.4,36.8c18.5,5.8,43.2,5.3,51.8,19.2c9.3,15.1-18.4,15.4-44.2,15.4c-25.8,0-359.5-1.3-452.7,0.5
						c-25.1,0.5-105.2,5.1-116.5-15.9C-6,204.5,14,197.1,20,182.6"/>
				</g>
				<path id="Fill-7" class="st2" d="M138.1,366.8c7.6,4.2,13.9,19.2-21.5,19.2c-30.1,0-78.6-8.5-78.6-16c0-7.5,24.4-10,54.6-10
					C122.7,360,130.5,362.6,138.1,366.8"/>
				<g id="Group-11" transform="translate(418.000000, 381.000000)">
					<g id="Clip-10">
					</g>
					<defs>
						<filter id="Adobe_OpacityMaskFilter" filterUnits="userSpaceOnUse" x="0.8" y="0.4" width="125.8" height="32.6">
							<feColorMatrix  type="matrix" values="1 0 0 0 0  0 1 0 0 0  0 0 1 0 0  0 0 0 1 0"/>
						</filter>
					</defs>
					<mask maskUnits="userSpaceOnUse" x="0.8" y="0.4" width="125.8" height="32.6" id="mask-2">
						<g class="st3">
							<polygon id="path-1" class="st4" points="0.8,0.4 126.6,0.4 126.6,33 0.8,33 							"/>
						</g>
					</mask>
					<path id="Fill-9" class="st5" d="M126.3,28.3c3.2,8.4-22.3-0.8-57.1,2.7c-52.1,5.1-68.4,0-68.4-9s29-21.5,64-21.5
						S120.8,13.7,126.3,28.3"/>
				</g>
				<path id="Fill-158" class="st6" d="M404.8,357.6c-0.6,7.2-49.7,8.7-109.7,3.5c-60-5.2-108.1-15.3-107.5-22.5
					c0.6-7.2,49.7-8.7,109.7-3.4S405.4,350.4,404.8,357.6"/>
				<path id="Fill-14" class="st7" d="M383.7,35.3L215.7,21c-1.8-0.1-3.4,0.3-4.7,1.1v0l-7,4.3l2.8,1.3l0.8-0.5
					c-0.1,0.5-0.2,1.1-0.2,1.7v302.8c0,4.7,3.7,8.9,8.3,9.3l164.9,14l-0.5,4.1l7.5-4.5c0.5-0.2,0.9-0.5,1.4-0.8l0,0v0
					c1.8-1.4,3-3.7,3-6.3V44.5C392,39.8,388.3,35.6,383.7,35.3"/>
				<path id="Fill-16" class="st8" d="M385,49.5v302.6c0,4.7-3.7,8.2-8.3,7.8l-168.3-14.2c-4.6-0.4-8.4-4.5-8.4-9.2V33.9
					c0-4.7,3.7-8.2,8.4-7.8l168.3,14.2C381.3,40.6,385,44.8,385,49.5"/>
				<path id="Fill-18" class="st4" d="M373,64v250.9c0,3.1-2.6,5.4-5.7,5.1l-106.5-9.4l-43.1-3.5c-2.3-0.2-4.3-1.7-5.2-3.7
					c-0.3-0.7-0.5-1.5-0.5-2.4V50.1c0-3.1,2.6-5.4,5.7-5.1l127.2,11.1l12.8,1l9.6,0.8C370.4,58.2,373,60.9,373,64"/>
				<path id="Fill-20" class="st7" d="M326.6,207.9l-72.9-8.7c-3.8-0.5-6.7-3.7-6.7-7.6c0-4.6,3.9-8.2,8.4-7.6l72.9,8.7
					c3.8,0.5,6.7,3.7,6.7,7.6C335,204.9,331.1,208.5,326.6,207.9"/>
				<path id="Fill-22" class="st7" d="M304,333.9c0,6.1-4.9,10.6-11,10.1c-6.1-0.5-11-5.8-11-11.9c0-6.1,4.9-10.6,11-10.1
					C299.1,322.5,304,327.8,304,333.9"/>
				<path id="Fill-24" class="st7" d="M296,41.8c0,1.9-1.6,3.4-3.5,3.2c-1.9-0.2-3.5-1.8-3.5-3.8c0-1.9,1.6-3.4,3.5-3.2
					C294.4,38.2,296,39.9,296,41.8"/>
				<path id="Fill-30" class="st8" d="M330,145.1c0,20.9-16.6,36.5-37,34.7c-20.4-1.7-37-20.1-37-41c0-20.9,16.6-36.5,37-34.7
					C313.4,105.9,330,124.2,330,145.1"/>
				<path id="Fill-32" class="st9" d="M316.4,159c1,2.1,0.6,4.7-1,6.4c-5.5,5.9-13.5,9.2-22.4,8.4c-9.1-0.8-17.2-5.6-22.8-12.7
					c-1.4-1.8-1.7-4.3-0.6-6.3c2.7-5.1,7.1-9.1,12.5-11.1c-3.3-3.4-5.4-8.1-5.4-13.1c0-9.4,7.3-16.4,16.3-15.6
					c9,0.8,16.3,9,16.3,18.4c0,5-2.1,9.4-5.4,12.2C309.3,148.6,313.7,153.4,316.4,159"/>
				<path id="Fill-34" class="st9" d="M310,285.9c0,9.6-7.6,16.8-17,16c-9.4-0.8-17-9.2-17-18.9c0-9.6,7.6-16.8,17-16
					C302.4,267.9,310,276.3,310,285.9"/>
				<path id="Fill-1_1_" class="st4" d="M301.8,290.3l-2.4-2.7c-0.4-0.5-1.1-0.5-1.5-0.1l-1,1c-0.4,0.4-0.9,0.6-1.4,0.7
					c-0.9,0.1-1.8-0.2-2.5-1l-3.2-3.7c-0.7-0.8-0.9-1.8-0.7-2.6c0.1-0.5,0.3-1,0.7-1.4l1-1c0.4-0.4,0.4-1.1,0-1.6l-2.4-2.7
					c-0.4-0.5-1.1-0.5-1.5-0.1l-1.7,1.7c-0.1,0.1-0.2,0.2-0.3,0.3c-4,5.1,10.7,21.4,14.9,16.9c0.1-0.1,0.2-0.2,0.4-0.3l1.7-1.7
					C302.2,291.5,302.2,290.7,301.8,290.3"/>
				<path id="Fill-36" class="st10" d="M254,280.7c0,8-6.3,13.9-14,13.3c-7.7-0.7-14-7.7-14-15.6s6.3-13.9,14-13.3
					C247.7,265.7,254,272.7,254,280.7"/>
				<path id="Fill-38" class="st11" d="M330,287.3c0,8,6.3,15,14,15.6c7.7,0.7,14-5.3,14-13.3s-6.3-15-14-15.6
					C336.3,273.4,330,279.3,330,287.3"/>
				<path id="Fill-46" class="st4" d="M232,278.5l4.8,0.4c0.4-0.6,1.1-1,1.8-0.9l3.7,0.3c0.8,0.1,1.4,0.5,1.8,1.2l4.8,0.4
					C248.3,274.3,231.7,273.1,232,278.5"/>
				<path id="Fill-48" class="st4" d="M249,280.3l-5-0.3c0.2,0.3,0.4,0.7,0.4,1v1c0,0.4,0.4,0.8,0.9,0.8l2.8,0.2
					c0.5,0,0.9-0.3,0.9-0.7v-1.7C249,280.6,249,280.4,249,280.3"/>
				<path id="Fill-50" class="st4" d="M237,279.3l-5-0.3c0,0.1,0,0.2,0,0.3v1.7c0,0.4,0.4,0.8,0.9,0.8l2.8,0.2
					c0.5,0,0.9-0.3,0.9-0.7v-1C236.6,280,236.8,279.6,237,279.3"/>
				<path id="Fill-5" class="st4" d="M345.6,292.2l-7.3-0.7c-0.5,0-0.9-0.5-0.9-1.1c0-0.6,0.5-1.1,1.1-1.1l7.3,0.7
					c0.5,0,0.9,0.5,0.9,1.1C346.7,291.7,346.2,292.2,345.6,292.2 M338.5,285.2l4.7,0.4c0.5,0,0.9,0.5,0.9,1.1c0,0.6-0.5,1.2-1.1,1.1
					l-4.7-0.4c-0.5,0-0.9-0.5-0.9-1.1C337.4,285.6,337.9,285.1,338.5,285.2 M351.7,283.3l-13.9-1.3c-1.5-0.1-2.8,1.1-2.8,2.8v7.1
					c0,1.7,1.2,3.2,2.8,3.3l8.7,0.8c1.5,0.1,2.8-1.1,2.8-2.8V288c0-1.9,1.6-3.3,2.6-4C352.1,283.8,352,283.3,351.7,283.3"/>
				<path id="Fill-54" class="st12" d="M213.1,138.6L200,141V94.3l23.4-4.3l5.8,22C232.5,124.5,225.3,136.4,213.1,138.6"/>
				<path id="Fill-56" class="st4" d="M201.3,132.9l-41.3-3.5v-22.4c0-12.7,10.1-22.1,22.7-21l41.3,3.4v22.4
					C224,124.6,213.9,134,201.3,132.9"/>
				<path id="Fill-58" class="st11" d="M205,124.6l-7.9-8.7c-1.6,0.2-3.3-0.4-4.6-1.8l-6-6.7c-1.2-1.4-1.7-3.2-1.4-4.8l-7.9-8.7
					C169.8,103.3,197.2,132.8,205,124.6"/>
				<path id="Fill-60" class="st11" d="M177,93.9l7.4,8.1c0.2-0.9,0.6-1.7,1.3-2.4l1.8-1.7c0.7-0.7,0.7-1.9,0-2.7l-4.2-4.6
					c-0.7-0.8-1.9-0.9-2.6-0.2l-3,2.8C177.4,93.5,177.2,93.7,177,93.9"/>
				<path id="Fill-62" class="st11" d="M196,116.4l7.6,8.6c0.2-0.2,0.4-0.4,0.6-0.5l3.1-3c0.8-0.7,0.8-2,0-2.8l-4.4-4.9
					c-0.8-0.9-2-1-2.7-0.2l-1.8,1.8C197.8,115.9,196.9,116.3,196,116.4"/>
				<path id="Fill-64" class="st7" d="M136.7,30.7c0-1.9-1.5-3.2-4.1-3.4c-1.7-0.1-3.5,0.4-5.3,1.4c-1.1,0.6-2.5,0.2-3-1
					c-0.5-1-0.1-2.3,0.9-2.9c2.5-1.4,5.3-2.1,8.1-1.9c5.1,0.4,8.5,3.3,8.5,7.4c0,2.7-2,5.5-4.9,8.2l-6.6,6.1l10.6,0.9
					c1.1,0.1,2,1,2,2.2c0,1.3-1.1,2.3-2.4,2.2l-14.1-1.2c-1.4-0.1-2.5-1.3-2.5-2.7c0-0.7,0.3-1.4,0.8-1.9l8.8-8.5
					C135.5,34,136.7,32.1,136.7,30.7"/>
				<path id="Fill-66" class="st7" d="M159.2,28.3l-7.4,12.3l8,0.6v-3.6c0-1.4,1.3-2.4,2.8-2.3c1.3,0.1,2.3,1.1,2.3,2.3l0,4l1.9,0.1
					c1.2,0.1,2.2,1,2.2,2.2c0,1.3-1.2,2.3-2.6,2.2l-1.5-0.1v3.8c0,1.3-1.3,2.4-2.8,2.3c-1.3-0.1-2.3-1.1-2.3-2.3v-4.2l-10.6-0.8
					c-1.8-0.1-3.2-1.5-3.2-3.2c0-0.5,0.1-1.1,0.4-1.5l8.5-13.9c0.5-0.8,1.4-1.2,2.3-1.1C159,25.1,160,26.9,159.2,28.3"/>
				<path id="Fill-68" class="st7" d="M177,25.2c-6.4-12.6-19.7-20.9-33.5-21.1l0.9-3.6c0.1-0.4-0.3-0.7-0.7-0.4l-10.5,7.4
					c-0.8,0.6-0.6,1.9,0.5,2.1l12.2,2.6c0.3,0.1,0.6-0.3,0.5-0.6L145.3,9c11.3,0.6,22.1,7.6,27.4,18.1c7.6,15,1.9,32.4-12.7,38.8
					c-14.1,6.1-31.3-0.2-39.5-14c-0.6-1-1.9-1.4-3-0.9c-1.3,0.6-1.8,2.1-1.1,3.3c6.5,10.9,18,17.8,29.8,18.7
					c5.4,0.4,10.9-0.4,16.1-2.6C179.3,62.9,186,42.7,177,25.2"/>
				<path id="Fill-70" class="st8" d="M365,69.2v17.2c0,0.9-0.7,1.6-1.6,1.6l-26.8-2.4c-0.9-0.1-1.6-0.9-1.6-1.8V66.6
					c0-0.5,0.2-1,0.6-1.3c0.3-0.2,0.6-0.3,1-0.3l26.8,2.4c0.4,0,0.7,0.2,1,0.5C364.8,68.2,365,68.7,365,69.2"/>
				<path id="Fill-72" class="st7" d="M365,67.8l-13.7,8c-0.5,0.3-1.1,0.2-1.6-0.1L336,65.3c0.3-0.2,0.6-0.3,1-0.3l27,2.3
					C364.4,67.4,364.7,67.5,365,67.8"/>
				<path id="Fill-74" class="st13" d="M389.5,116.9L389.5,116.9c-0.8,0.4-1.5-0.1-1.5-1.2V93.9c0-1.1,0.7-2.3,1.5-2.7
					c0.8-0.4,1.5,0.1,1.5,1.2v21.8C391,115.2,390.3,116.4,389.5,116.9"/>
				<path id="Fill-76" class="st13" d="M389.5,133.9L389.5,133.9c-0.8,0.4-1.5-0.1-1.5-1.1v-7c0-1,0.7-2.2,1.5-2.6
					c0.8-0.4,1.5,0.1,1.5,1.1v7C391,132.3,390.3,133.5,389.5,133.9"/>
				<path id="Fill-92" class="st14" d="M140.5,210l10.5,3c-12-43.9,5.9-55.9-9.6-81l-7.4,10.9L140.5,210z"/>
				<path id="Fill-94" class="st15" d="M145,207l-1.1,71.1l-0.2,2.3c-0.1,1-0.2,2.2-0.4,3.2c-0.1,0.5-0.2,1.1-0.3,1.6l-0.1,0.4
					l-0.1,0.3l-0.1,0.6l-0.6,2.3l-2.2,9L122.3,370l-7.3-1.2l6.8-74.1l0.8-9.3l0.2-2.3l0.1-0.6l0-0.3l0-0.2l0-0.7
					c0-0.5,0-0.8-0.1-1.4l-0.1-2.3l-1-18.6l-2.8-50.2L145,207z"/>
				<path id="Fill-96" class="st16" d="M58,356c5.6-11.7,11.1-23.5,16.6-35.3L91,285.2l4.1-8.9l1-2.2c0.2-0.4,0.3-0.6,0.4-0.8
					c0.1-0.2,0.2-0.5,0.2-0.7c0.3-1,0.5-1.9,0.6-2.9l1.2-18.6l1.2-19.5l0.6-9.7l0.3-4.9l0.2-2.4c-0.1-0.8,0.6-1.6-1-2.6L134,211
					c-1.9,0.6-18.8,67.1-19.8,69.1c-0.2,0.5-0.5,1-0.8,1.5c-0.3,0.5-0.6,1-0.8,1.3l-1.3,2.1l-5.1,8.3l-20.4,33.3
					c-6.7,11.1-13.5,22.2-20.2,33.4L58,356z"/>
				<path id="Fill-98" class="st12" d="M100,229c5.9-0.5,36.2-3.5,43.9-11.8l0.1-3.6c0,0-19.8-1.6-20.1-1.6
					c-0.3,0.1-19.1,4-19.2,4.3c-0.1,0.3-4.7,7.3-4.7,7.3V229z"/>
				<path id="Fill-100" class="st4" d="M141.4,172.9c-4,20.5,6.6,30.9,5,38.5c-1.9,9.1-36.9,13.5-47.5,5.6c0,0,5.6-82.5,27.8-90
					c0.8-0.3,1.7-0.5,2.5-0.6c2.1-0.2,5.4-1.2,9.6,2.4c0,0,0.1,0.1,0.2,0.1c0,0,0,0,0,0v0c0,0.1-0.1,0.2-0.1,0.2
					c0.1,0.1,0.3,0.2,0.4,0.4c0.4,0.7,1,1.8,1.6,2.2c0.9,2.1,2.3,6.5,4.2,10.6C149.8,152.3,144.3,158.3,141.4,172.9"/>
				<path id="Fill-102" class="st12" d="M113.2,368.2c-1.2,3.6-1.7,5.3-0.5,8.8h23.4c1.1,0,1.2-1.9,0.3-2.5
					c-5.7-2.4-10.8-4-13.6-7.5C118.8,367.8,116.3,369.2,113.2,368.2"/>
				<path id="Fill-104" class="st12" d="M59.2,355c-2.9,2.2-4.2,3.3-5.2,6.8l18.3,13c0.9,0.6,2-0.8,1.6-1.9c-3.1-5-6.3-9.2-6.6-13.6
					C63.9,357.9,61.1,357.6,59.2,355"/>
				<path id="Fill-106" class="st17" d="M141,131.5c-0.3,0.1-0.5,0.2-0.7,0.3c-5.1,0.9-9.5-1.1-13.6-5.2c0,0,0,0,0,0
					c0,0,2.3-2.7-0.7-6.7c0,0,14.4-6,12.9-0.6c-1.2,4.2-0.5,7.4,0.2,9.4c0,0,0,0,0,0v0c0,0.1,0.2,0.3,0.3,0.6
					C139.8,130,140.5,131.2,141,131.5"/>
				<path id="Fill-108" class="st18" d="M143.8,114c-0.6,0.6-1.1,1-1.5,1.2c0.3,5.1-1.6,8.7-7.9,8.8c-5.1,0.1-9.1-1.5-12.3-4.3
					c-0.3-0.3-0.7-0.6-1-0.9c-1.2-1.2-2.3-2.5-3.3-4c-0.2-1.3-1-2.7-1.5-4.7c-0.3-2-0.3-4.6,0.3-8c0.3-1.5,0.8-2.8,1.5-3.9
					c1-1.6,2.3-2.9,3.9-3.9c4.5-1.1,9.3-1.6,12-2.3c0.2-0.1,0.3-0.1,0.5-0.1l0.1,0c0,0,0,0,0,0c1.9,2,2.8,3.8,2.8,3.8
					c0.5,0.2,1,0.3,1.4,0.5c0.1,0.8,0.1,1.6,0.1,2.3c0,1.1-0.1,1.9-0.1,1.9c0.1,0.2,0.2,0.5,0.2,0.7c0.2,0.6,0.4,1.3,0.6,1.9
					c0.6,1.7,1.1,3.3,1.5,4.9C142.6,110.1,144.6,113.1,143.8,114"/>
				<polygon id="Fill-110" class="st12" points="189,120 185.1,132 181,131.6 186.6,118 				"/>
				<path id="Fill-112" class="st19" d="M155.5,155.8C155.5,155.8,155.5,155.8,155.5,155.8c0.1-0.2,0.1-0.2,0.2-0.3l-0.1,0.1
					C155.6,155.7,155.5,155.9,155.5,155.8 M184.4,107.3c-1.5,0.6-4.1,5.3-1.8,11.7l0,0l-17.9,23.9l-6.4,9l-1.6,2.3l-0.7,1l-16.1-9.4
					c-0.9,4-2.8,7.7-5.8,11.1l18.1,8.4c3.8,1.5,8.3,0.4,10.9-2.6c0.3-0.4,0.6-0.8,0.9-1.2c0.2-0.2,0.2-0.3,0.2-0.4l0.2-0.3l0.7-1.2
					l1.4-2.4l5.7-9.5l14.6-25.4c2.6-1,3.4-7,5.9-10.5C194.3,109.9,188.1,105.9,184.4,107.3"/>
				<path id="Fill-114" class="st12" d="M128.9,113.6c1.5,3.1-2,9-4,8.4s-12.5-9.4-10.7-18c1.2-5.8,3-10.5,7.7-9.9
					c4.5,0.6,5.5-3.5,14.7-4c6.1-0.4,6.8,3.7,6.2,5.2c-0.6,1.6-1.8,7.3-4.6,6.9c-2.7-0.4-7.3,5.8-8.9,5.4c-1.6-0.4-2.6-1.5-3.6,0.1
					c-1.1,1.7,0.8,3,1.1,4.8C127.2,114.2,128.9,113.6,128.9,113.6"/>
				<path id="Fill-116" class="st13" d="M134,110.5c0,1.5-0.7,2.8-1.8,3.6c-0.3,0.2-0.7,0.4-1.1,0.6c-0.5,0.2-1,0.3-1.6,0.3
					c-2.5,0-4.5-2-4.5-4.5c0-2.5,2-4.5,4.5-4.5C132,106,134,108,134,110.5"/>
				<path id="Fill-118" class="st20" d="M132,110.5c0,1.4-1.1,2.5-2.5,2.5s-2.5-1.1-2.5-2.5s1.1-2.5,2.5-2.5S132,109.1,132,110.5"/>
				<path id="Fill-120" class="st12" d="M143,121.7c-0.5,0.2-1.1,0.3-1.6,0.3c-3.7,0-7.2-4-9.4-7.4c0.3-0.1,0.7-0.3,1-0.6
					c2.4,3.8,6.3,7.8,9.7,6.6L143,121.7z"/>
				<path id="Fill-122" class="st12" d="M144,119.7c0.1,0.5-0.2,1.1-0.8,1.2c-0.5,0.2-1.1-0.2-1.2-0.7c-0.1-0.5,0.2-1.1,0.8-1.2
					C143.3,118.9,143.9,119.2,144,119.7"/>
				<path id="Fill-124" class="st13" d="M130.3,111c-0.8,0-1.5-0.5-1.7-1.3c-0.3-1-0.5-2.1-0.8-3.4c-0.8-3.6-2.4-10.4-4.5-11
					c-0.9-0.2-1.5-1.2-1.2-2.1c0.2-0.9,1.2-1.5,2.1-1.2c4.1,1.1,5.7,7.7,7,13.5c0.3,1.2,0.5,2.3,0.8,3.3c0.3,0.9-0.3,1.9-1.2,2.1
					C130.6,111,130.4,111,130.3,111"/>
				<path id="Fill-126" class="st14" d="M180.5,121l5.5,4.1c0,0-19.7,41.6-25.5,41.9c-5.8,0.4-28.1-9.2-28.1-9.2s-1.6,37,7.9,60.1
					c-13.8,5.5-28.3,7-43.4,5.3c0,0,11-88.8,24.2-94.4c10.4-4.4,7,3.2,7,3.2l26.1,19.6L180.5,121z"/>
				<polygon id="Fill-128" class="st14" points="125,126.9 127.2,126 139.6,137.6 140,141 128.1,131.6 				"/>
				<path id="Fill-130" class="st12" d="M132.1,157c0,0-0.1,1.3-0.1,4.5l15.9,2.5l0.1-0.6C142.2,161.2,136.8,159.1,132.1,157"/>
				<path id="Fill-132" class="st12" d="M359.4,237.2L392,214v85c-2.4-0.9-4.6-2.7-6-5.3l-28.3-49.3
					C356.3,242.1,357.1,238.8,359.4,237.2"/>
				<path id="Fill-134" class="st18" d="M500.6,295l-16.5-1.5l-0.5-0.1c-4-0.7-7.7-2.6-10.4-5.5c-0.3-0.3-0.7-0.7-1-1.2l-0.6-0.8
					l-1.2-1.5L448,252.6l5.6-4.6l27,33.1c0,0,21.3,1.2,21.4,0.5C500.3,286.3,499.7,290.8,500.6,295"/>
				<path id="Fill-136" class="st15" d="M472.4,382.2c0,0,20.5-3.7,36.2-12.8c2.9-1.6,5.5-3.5,7.9-5.5l-0.5-1l-2-4.1l-7-13.9
					c-2.2,0.5-5.1,1.4-8.3,2.5c-2.4,0.9-5.1,1.9-7.9,3.1c-7.2,3-15.2,6.7-22,10c-9.4,4.5-16.6,8.2-16.6,8.2
					c-0.1,0.1-0.3,0.1-0.4,0.2c-13.2,6-6.6,20.8-1.7,21.3c1.1,0.5,2.2,1,3.5,1.4c15.1,5.6,42.9,8.4,69.2,11.3l1.3-8L472.4,382.2z"/>
				<path id="Fill-138" class="st12" d="M518,393.3c2.2-3,3.4-4.3,6.9-5.3l12.9,19.3c0.6,0.9-0.8,2.1-1.9,1.6
					c-5-3.3-9.2-6.7-13.6-7.1C520.8,398.2,520.6,395.3,518,393.3"/>
				<path id="Fill-140" class="st10" d="M403.9,288.7L367.2,245c-1.8-2.1-1.6-5.5,0.4-7.5l64.6-65c2-2,5.1-1.9,6.9,0.2l36.6,43.7
					c4.7,5.6,4.2,14.3-1,19.6l-53,53.3C416.6,294.5,408.6,294.2,403.9,288.7"/>
				<path id="Fill-142" class="st21" d="M472.8,215.6l-34-40.4l0,0l-2.6-3.1c-0.3-0.3-0.5-0.6-0.9-0.8l-4.9-0.3l-1.8-0.1l0.8,0.9
					l-64.7,64.8c-2,2-2.2,5.4-0.4,7.5l36.6,43.5c4.7,5.6,12.7,5.8,17.9,0.6l53-53.1C477,229.9,477.4,221.2,472.8,215.6"/>
				<path id="Fill-144" class="st10" d="M394.9,287.7L358.2,244c-1.8-2.1-1.6-5.5,0.4-7.5l64.6-65c2-2,5.1-1.9,6.9,0.2l36.6,43.7
					c4.7,5.6,4.2,14.3-1,19.6l-53,53.3C407.6,293.5,399.6,293.2,394.9,287.7"/>
				<path id="Fill-152" class="st22" d="M399.2,208.8c-0.8-1-1.9-1.3-2.9-1.1l-3.6-4.6c-0.2-0.2-0.5-0.2-0.7,0l-1.7,1.9
					c-0.2,0.2-0.2,0.6,0,0.8l3.6,4.6c-0.3,1.2-0.1,2.5,0.7,3.4c1.2,1.5,3.2,1.5,4.5,0.2C400.2,212.6,400.4,210.3,399.2,208.8"/>
				<path id="Fill-154" class="st22" d="M409.2,198.8c-0.8-1-1.9-1.3-2.9-1.1l-3.6-4.6c-0.2-0.2-0.5-0.2-0.7,0l-1.7,1.9
					c-0.2,0.2-0.2,0.6,0,0.8l3.6,4.6c-0.3,1.2-0.1,2.5,0.7,3.4c1.2,1.5,3.2,1.5,4.5,0.2C410.2,202.6,410.4,200.3,409.2,198.8"/>
				<path id="Fill-156" class="st22" d="M419.2,188.8c-0.8-1-1.9-1.3-2.9-1.1l-3.6-4.6c-0.2-0.2-0.5-0.2-0.7,0l-1.7,1.9
					c-0.2,0.2-0.2,0.6,0,0.8l3.6,4.6c-0.3,1.2-0.1,2.5,0.7,3.4c1.2,1.5,3.2,1.5,4.5,0.2C420.2,192.6,420.4,190.3,419.2,188.8"/>
				<path id="Fill-158_1_" class="st22" d="M429.2,176.8c-0.8-1-1.9-1.3-2.9-1.1l-3.6-4.6c-0.2-0.2-0.5-0.2-0.7,0l-1.7,1.9
					c-0.2,0.2-0.2,0.6,0,0.8l3.6,4.6c-0.3,1.2-0.1,2.5,0.7,3.4c1.2,1.5,3.2,1.5,4.5,0.2C430.2,180.6,430.4,178.3,429.2,176.8"/>
				<path id="Fill-160" class="st22" d="M384.4,223.9c-0.8-1-1-2.3-0.7-3.4l-3.6-4.6c-0.2-0.2-0.2-0.6,0-0.8l1.7-1.9
					c0.2-0.2,0.5-0.2,0.7,0l3.6,4.6c1-0.2,2.2,0.1,2.9,1.1c1.2,1.5,1.1,3.8-0.2,5.2C387.6,225.4,385.6,225.3,384.4,223.9"/>
				<path id="Fill-162" class="st22" d="M372.4,233.9c-0.8-1-1-2.3-0.7-3.4l-3.6-4.6c-0.2-0.2-0.2-0.6,0-0.8l1.7-1.9
					c0.2-0.2,0.5-0.2,0.7,0l3.6,4.6c1-0.2,2.2,0.1,2.9,1.1c1.2,1.5,1.1,3.8-0.2,5.2C375.6,235.4,373.6,235.3,372.4,233.9"/>
				<path id="Fill-164" class="st22" d="M362.4,244.9c-0.8-1-1-2.3-0.7-3.4l-3.6-4.6c-0.2-0.2-0.2-0.6,0-0.8l1.7-1.9
					c0.2-0.2,0.5-0.2,0.7,0l3.6,4.6c1-0.2,2.2,0.1,2.9,1.1c1.2,1.5,1.1,3.8-0.2,5.2C365.6,246.4,363.6,246.3,362.4,244.9"/>
				<path id="Fill-166" class="st16" d="M522,343.5l-5.3,17.1l-0.6,2.1l-0.4,1.1c-2.5,2.1-5.6,3.5-9.1,4.2
					c-10.4,2.2-24.6-1.2-37.5-7.6c-7.5-3.7-14.7-8.5-20.4-13.7c1.2,3.5,2.5,12.3,3.5,22.1c0.8,7.6,1.4,15.9,1.7,22.5
					c0.3,6.5,0.3,11.6-0.2,13.1l-6.2,0.7c-1.1-5-12.7-50.3-14.5-60.3l0-0.2l0-0.8c0-2.2,0.5-4.5,1.5-6.5c1-2,2.4-3.8,4.2-5.2
					c1.8-1.4,3.9-2.3,6.2-2.7c2-0.4,4.2-0.3,6.1,0.2c12.1,1.6,24.2,3.2,35.7,6.3C498.3,338.9,510.3,340.4,522,343.5"/>
				<path id="Fill-168" class="st10" d="M517.3,363.9c-0.5,0.3-1.1,0.5-1.6,0.7c0,0,0,0,0,0c-9.8,3.1-21.9-11.7-29.3-24.2
					c-0.5-0.8-0.7-1.4-0.7-2c0-0.1,0-0.3,0-0.4c0-0.6,0.2-1.2,0.3-2c5.2-20.8,3.1-16.7,1.7-24.4c-0.1-0.5-0.2-1.1-0.2-1.7
					c-0.1-0.8-0.2-1.5-0.3-2.1c-1.7-9-5.4-12.1,4-26.9c0.4-0.7,5.2-1.7,5.7-2.4c3.1-4.6,4.4-4.3,9.8-0.4
					c7.3,5.2,14.7,16.3,17.4,28.5C528.7,327.8,524.4,360,517.3,363.9"/>
				<path id="Fill-170" class="st18" d="M494,307.1l-16.1,1.8l-0.5,0.1c-3.9,0.2-7.9-1-11.1-3.1c-0.4-0.3-0.8-0.6-1.2-0.9l-0.7-0.6
					l-1.4-1.2L435,277.5l4.5-5.5c0,0,35.7,25.6,35.8,25.5l17.4-3.4C492,298.9,492.3,303.3,494,307.1"/>
				<path id="Fill-172" class="st17" d="M491,281.4c0.2,0.2,0.5,0.3,0.6,0.4c4.9,2.1,9.9,1.3,15.1-1.8c0,0,0,0,0,0
					c0,0-1.7-3.2,2.3-6.4c0,0-13.2-9.5-12.9-3.7c0.2,4.4-1.2,7.4-2.5,9.2c0,0,0,0,0,0l0,0c-0.1,0.1-0.2,0.3-0.5,0.5
					C492.6,280.2,491.6,281.2,491,281.4"/>
				<path id="Fill-174" class="st18" d="M492.1,264.8c0.4,0.8,0.9,1.3,1.3,1.6c-1.5,5.1-0.5,9.2,6.2,10.9c5.3,1.3,10,0.7,14.1-1.2
					c0.4-0.2,0.9-0.4,1.3-0.6c1.6-0.9,3.1-1.9,4.5-3.2c0.6-1.2,1.7-2.5,2.8-4.3c0.8-2,1.5-4.6,1.7-8.1c0.1-1.6-0.1-3-0.6-4.3
					c-0.6-1.9-1.7-3.5-3.2-4.9c-4.4-2.3-9.5-4-12.1-5.3c-0.2-0.1-0.3-0.2-0.5-0.2l-0.1-0.1c0,0,0,0,0,0c-2.5,1.5-3.9,3.2-3.9,3.2
					c-0.6,0.1-1.1,0.1-1.6,0.1c-0.3,0.8-0.6,1.6-0.7,2.3c-0.3,1.1-0.4,1.9-0.4,1.9c-0.1,0.2-0.3,0.4-0.4,0.7
					c-0.4,0.6-0.8,1.2-1.2,1.8c-1,1.5-2,3.1-2.8,4.6C494.4,261.2,491.5,263.7,492.1,264.8"/>
				<path id="Fill-176" class="st12" d="M454,398.4c1,3.5,1.4,5.2,0.2,8.6l-22.4-0.7c-1.1,0-1.1-1.8-0.2-2.5
					c5.5-2.1,10.5-3.5,13.3-6.8C448.6,397.9,451,399.4,454,398.4"/>
				<path id="Fill-178" class="st18" d="M435.4,277c-3.6-0.6-6.3-3.5-7-5.4c-1.1-3.1,0.1-12,2.4-11.6c2.3,0.3,3.8,5.5,5,5.5
					c0.6,0-0.4-4,1.3-2.4c2,1.8,1.8,8,1.8,8L435.4,277z"/>
				<path id="Fill-180" class="st22" d="M491,281l-0.6,1l-0.8,2.5l-4.5,10.5c-1.4,0-3.9-0.4-4.1-0.5c0,0,0.9-9,4.7-12.9L491,281z"/>
				<path id="Fill-182" class="st12" d="M522.6,311.8c-5.8-0.8-6.8-2.9-10.6-8.7c-0.3-0.5-0.7-1.1-1.1-1.7c-1-1.5-2.1-2.8-3.2-4
					c-4.1-4.3-8.3-7.3-7.2-14.6c1.3-9.3,7-11.7,7.6-16.6c0.6-4.4-2.4-10.4-3.1-11.7c0,0,0-0.1-0.1-0.1c-0.1-0.1-0.1-0.1-0.1-0.1
					c-1.4-0.6-3-1.6-4.3-2.8c-0.1-0.1-0.2-0.2-0.4-0.3c-2.3-2.2-3.5-5-0.5-7c1.5-1,4.5-1.3,7.8-0.9c0.1,0,0.1,0,0.2,0
					c4.3,0.6,9.2,2.4,12.4,5.6c1.4,1.4,2.5,3,3.1,4.9c0.4,1.3,0.7,2.8,0.6,4.4c1.1,5.6-3,9.5-1.3,14.1c1.7,4.6,7.2,9.3,5.8,17.2
					c-1.4,7.9-3.9,10.1,0,15.8C532.2,310.7,528.9,312.7,522.6,311.8"/>
				<path id="Fill-184" class="st22" d="M501,305c-0.5,0.3-8.2,4.9-13.4,6c-0.1-0.5-0.2-1.1-0.3-1.8c-0.1-0.8-0.2-1.6-0.4-2.3
					C487.1,307.2,499.6,305.5,501,305"/>
				<path id="Fill-186" class="st22" d="M516,364.4c-2.1,1.7-4.4,3.2-6.9,4.6c-0.7-0.3-1.3-0.7-2-1.1c-5.1-3.3-11.1-10.4-15.2-17
					c-2.9-4.7-4.9-9.2-4.9-11.9c0,0.6,0.2,1.2,0.7,1.9C494.9,353.1,506.5,367.4,516,364.4"/>
			</g>
			<g id="Group-8" transform="translate(422.000000, 0.000000)">
				<path id="Fill-1_2_" class="st15" d="M26.8,102.4c-1.1-1.1-2.2-1.9-3.4-2.5l0,0l-0.5-0.2c-0.1,0-0.2-0.1-0.3-0.1L16.9,97
					l-1.4,0.9l0.8,1c-2.7,0.5-5,1.8-7,4.2c-2.3,2.7-3.4,6-3.2,9.7c0.1,2.9,1,5.4,2.5,7.6c-0.5,1-0.9,1.8-0.9,1.8l6.1,2.8
					c0,0,0,0,0,0c1.7,0.8,3.4,1.1,5.4,1c3.4-0.2,6.3-1.6,8.5-4.4c2.4-2.8,3.5-6.1,3.3-9.7C30.8,108.2,29.4,105.1,26.8,102.4"/>
				<g id="Group-5" transform="translate(31.000000, 2.000000)">
					<g id="Clip-4">
					</g>
					<defs>
						<filter id="Adobe_OpacityMaskFilter_1_" filterUnits="userSpaceOnUse" x="0.2" y="0.5" width="82.2" height="93">
							<feColorMatrix  type="matrix" values="1 0 0 0 0  0 1 0 0 0  0 0 1 0 0  0 0 0 1 0"/>
						</filter>
					</defs>
					<mask maskUnits="userSpaceOnUse" x="0.2" y="0.5" width="82.2" height="93" id="mask-4">
						<g class="st23">
							<polygon id="path-3" class="st4" points="0.2,0.5 82.3,0.5 82.3,93.5 0.2,93.5 							"/>
						</g>
					</mask>
					<path id="Fill-3" class="st24" d="M82.2,40.2C81.4,29.6,77,20.2,68.9,12c-6.5-6.6-13.8-10.4-22-11.3c-8.2-0.9-16,0.8-23.6,5.1
						l4.6,10.9l-3,3.7l5.6,2.6C41.1,16.3,50.3,17,58.1,25c4.6,4.7,7.1,9.7,7.6,15.2c0.5,5.5-1.2,10.5-5,15.1
						c-2.6,3.1-5.7,5.2-9.2,6.1c-3.5,0.9-9.1,1.4-16.8,1.4c-7.7,0-13.6,0.8-17.6,2.4c-4.1,1.6-7.8,4.5-11.1,8.5l-5.7,6.9l8,8.2
						l-1,2.2l5.6,2.6l5.2-6.3c4.3-5,11.2-7.5,20.8-7.4c9.5,0.1,16.8-0.8,21.8-2.6c5-1.9,9.2-4.9,12.7-9C80.1,60,83,50.7,82.2,40.2"
						/>
				</g>
				<path id="Fill-6" class="st16" d="M21.6,118.6c-2.3,2.7-5.1,4.2-8.5,4.4c-3.4,0.2-6.4-1.1-9-3.7c-2.5-2.5-3.9-5.7-4-9.5
					c-0.2-3.8,0.9-7,3.2-9.8c2.4-2.8,5.2-4.3,8.6-4.4c3.4-0.1,6.3,1.1,8.9,3.7c2.6,2.6,4,5.8,4.2,9.5
					C25,112.5,23.9,115.8,21.6,118.6L21.6,118.6z M38.3,92.3L25.6,79.5l5.7-6.9c3.3-4,7.1-6.8,11.2-8.4c4.1-1.6,10-2.4,17.7-2.4
					c7.7,0,13.3-0.4,16.8-1.4c3.5-0.9,6.6-3,9.2-6.1c3.8-4.6,5.5-9.6,5.1-15c-0.5-5.4-3-10.4-7.6-15.1c-7.8-7.9-17.1-8.6-27.7-2
					l-7.2-17c7.5-4.3,15.4-5.9,23.6-5c8.2,0.9,15.6,4.6,22,11.2c8.1,8.2,12.6,17.5,13.4,28c0.8,10.4-2.2,19.7-8.9,27.8
					c-3.4,4.1-7.7,7.1-12.7,8.9c-5,1.8-12.3,2.7-21.9,2.6c-9.6-0.1-16.5,2.3-20.8,7.3L38.3,92.3z"/>
			</g>
			<g id="Group-17" transform="translate(471.000000, 113.000000)">
				<polygon id="Fill-373" class="st25" points="64.9,80 0,58.3 14.1,16 79,37.7 				"/>
				<polygon id="Fill-374" class="st25" points="79,38 14,16.1 55.4,0 				"/>
				<polygon id="Fill-375" class="st4" points="58.5,76 7,58.7 21.5,15 73,32.3 				"/>
				<polygon id="Fill-376" class="st26" points="14.1,16 0,58 39,49.2 				"/>
				<polygon id="Fill-377" class="st26" points="79,38 64.9,80 39,49.7 				"/>
				<polygon id="Fill-378" class="st26" points="65,80 0,58.1 41.4,42 				"/>
				<path id="Fill-379" class="st25" d="M0,58.1c3.4-1.5,6.8-2.9,10.2-4.4l10.3-4.2c3.4-1.4,6.9-2.8,10.3-4.1l10.3-4.1l0.7-0.3
					l0.4,0.6l5.8,9.5c1.9,3.2,3.9,6.3,5.8,9.5l5.7,9.6c1.8,3.2,3.7,6.4,5.5,9.7c-2.1-3-4.2-6.2-6.3-9.2l-6.1-9.3
					c-2.1-3.1-4-6.3-6-9.4l-6-9.4l1.1,0.4l-10.4,3.9c-3.5,1.3-6.9,2.7-10.4,3.9l-10.4,3.8C7,55.7,3.5,57,0,58.1"/>
			</g>
			<path id="Fill-86" class="st10" d="M552.8,166.8c-4.3,4.3-11.3,4.3-15.6,0c-4.3-4.3-4.3-11.3,0-15.6c4.3-4.3,11.3-4.3,15.6,0
				C557.1,155.5,557.1,162.5,552.8,166.8"/>
			<path id="Fill-88" class="st4" d="M548.2,157.6c0.6-0.7,0.5-1.6-0.4-2.4c-0.5-0.5-1.3-0.7-2.2-0.8c-0.7-0.1-1.1-0.8-0.9-1.4
				c0.2-0.6,0.8-1,1.4-0.8c1.3,0.3,2.5,1,3.4,1.9c1.7,1.7,2,3.8,0.7,5.2c-0.9,0.9-2.5,1.2-4.5,1.2l-4.4,0l3.1,3.1
				c0.6,0.6,0.6,1.7-0.1,2.2c-0.6,0.5-1.4,0.4-2-0.2l-3.9-4.3c-0.5-0.5-0.5-1.3-0.1-1.9l0.2-0.3c0.3-0.4,0.7-0.6,1.2-0.6l5.8-0.1
				C546.7,158.3,547.8,158.1,548.2,157.6"/>
		</g>
	</g>
</g>
</svg>
